<svg width="100" height="100" viewBox="0 0 100 100" fill="none" xmlns="http://www.w3.org/2000/svg">
  <!-- Glowing background circle -->
  <circle cx="50" cy="50" r="40" fill="#0c1419" />
  <circle cx="50" cy="50" r="38" fill="#0c1419" stroke="#4fc3f7" stroke-width="1" opacity="0.8">
    <!-- Add pulsing animation -->
    <animate attributeName="opacity" values="0.5;0.8;0.5" dur="3s" repeatCount="indefinite" />
    <animate attributeName="r" values="38;39;38" dur="3s" repeatCount="indefinite" />
  </circle>
  
  <!-- Stylized O for Overwatch -->
  <path d="M50 25C36.2 25 25 36.2 25 50C25 63.8 36.2 75 50 75C63.8 75 75 63.8 75 50C75 36.2 63.8 25 50 25ZM50 65C41.7 65 35 58.3 35 50C35 41.7 41.7 35 50 35C58.3 35 65 41.7 65 50C65 58.3 58.3 65 50 65Z" fill="#4fc3f7">
    <!-- Add subtle pulsing glow animation -->
    <animate attributeName="fill" values="#4fc3f7;#81d4fa;#4fc3f7" dur="3s" repeatCount="indefinite" />
  </path>
  
  <!-- Add a subtle glow filter -->
  <filter id="glow" x="-50%" y="-50%" width="200%" height="200%">
    <feGaussianBlur stdDeviation="2" result="blur" />
    <feComposite in="SourceGraphic" in2="blur" operator="over" />
  </filter>
</svg> 